<mxfile host="65bd71144e">
    <diagram id="SCLYzmCDH6pqy7xsBQn5" name="Page-1">
        <mxGraphModel dx="1471" dy="515" grid="1" gridSize="10" guides="1" tooltips="1" connect="1" arrows="1" fold="1" page="1" pageScale="1" pageWidth="827" pageHeight="1169" math="0" shadow="0">
            <root>
                <mxCell id="0"/>
                <mxCell id="1" parent="0"/>
                <mxCell id="VfEH0Eg_Bxn7WgswUZxK-1" value="" style="rounded=0;whiteSpace=wrap;html=1;strokeColor=none;fillColor=#FFFFFF;connectable=0;allowArrows=0;movable=0;rotatable=0;deletable=0;cloneable=0;" parent="1" vertex="1">
                    <mxGeometry x="-150" y="50" width="1450" height="2380" as="geometry"/>
                </mxCell>
                <mxCell id="33" style="edgeStyle=orthogonalEdgeStyle;shape=connector;rounded=0;html=1;exitX=0.5;exitY=1;exitDx=0;exitDy=0;entryX=0.5;entryY=0;entryDx=0;entryDy=0;labelBackgroundColor=default;fontFamily=Helvetica;fontSize=11;fontColor=#000000;endArrow=none;endFill=0;strokeColor=#000000;strokeWidth=1;elbow=vertical;" parent="1" edge="1">
                    <mxGeometry relative="1" as="geometry">
                        <mxPoint x="225" y="480" as="sourcePoint"/>
                    </mxGeometry>
                </mxCell>
                <mxCell id="VfEH0Eg_Bxn7WgswUZxK-2" value="年表" parent="0"/>
                <mxCell id="xpBaOHlXI4stCzfS4Fe9-15" style="edgeStyle=orthogonalEdgeStyle;shape=connector;rounded=1;html=1;exitX=0;exitY=0.5;exitDx=0;exitDy=0;labelBackgroundColor=default;fontFamily=Helvetica;fontSize=11;fontColor=default;endArrow=block;endFill=0;strokeColor=#0000FF;strokeWidth=1;startArrow=none;startFill=0;" parent="VfEH0Eg_Bxn7WgswUZxK-2" source="VfEH0Eg_Bxn7WgswUZxK-3" target="VfEH0Eg_Bxn7WgswUZxK-16" edge="1">
                    <mxGeometry relative="1" as="geometry"/>
                </mxCell>
                <mxCell id="66" style="edgeStyle=entityRelationEdgeStyle;startArrow=none;endArrow=none;segment=10;fontColor=#000000;strokeColor=#000000;strokeWidth=1;elbow=vertical;orthogonal=0;snapToPoint=0;rounded=1;" edge="1" parent="VfEH0Eg_Bxn7WgswUZxK-2" source="VfEH0Eg_Bxn7WgswUZxK-3" target="63">
                    <mxGeometry relative="1" as="geometry"/>
                </mxCell>
                <mxCell id="VfEH0Eg_Bxn7WgswUZxK-3" value="" style="ellipse;whiteSpace=wrap;html=1;aspect=fixed;strokeColor=#000000;fillColor=#99FFFF;" parent="VfEH0Eg_Bxn7WgswUZxK-2" vertex="1">
                    <mxGeometry x="540" y="250" width="12" height="12" as="geometry"/>
                </mxCell>
                <mxCell id="VfEH0Eg_Bxn7WgswUZxK-20" style="edgeStyle=orthogonalEdgeStyle;html=1;exitX=0.5;exitY=1;exitDx=0;exitDy=0;entryX=0.5;entryY=0;entryDx=0;entryDy=0;fontColor=#000000;endArrow=none;endFill=0;strokeColor=#0000FF;strokeWidth=1;" parent="VfEH0Eg_Bxn7WgswUZxK-2" source="VfEH0Eg_Bxn7WgswUZxK-5" target="VfEH0Eg_Bxn7WgswUZxK-19" edge="1">
                    <mxGeometry relative="1" as="geometry"/>
                </mxCell>
                <mxCell id="xpBaOHlXI4stCzfS4Fe9-16" style="edgeStyle=orthogonalEdgeStyle;shape=connector;rounded=1;html=1;exitX=0;exitY=0.5;exitDx=0;exitDy=0;labelBackgroundColor=default;fontFamily=Helvetica;fontSize=11;fontColor=default;startArrow=none;startFill=0;endArrow=block;endFill=0;strokeColor=#0000FF;strokeWidth=1;" parent="VfEH0Eg_Bxn7WgswUZxK-2" source="VfEH0Eg_Bxn7WgswUZxK-5" target="VfEH0Eg_Bxn7WgswUZxK-18" edge="1">
                    <mxGeometry relative="1" as="geometry"/>
                </mxCell>
                <mxCell id="VfEH0Eg_Bxn7WgswUZxK-5" value="" style="ellipse;whiteSpace=wrap;html=1;aspect=fixed;strokeColor=#000000;fillColor=#99FFFF;" parent="VfEH0Eg_Bxn7WgswUZxK-2" vertex="1">
                    <mxGeometry x="540" y="390" width="12" height="12" as="geometry"/>
                </mxCell>
                <mxCell id="VfEH0Eg_Bxn7WgswUZxK-6" value="" style="endArrow=none;html=1;exitX=0.5;exitY=1;exitDx=0;exitDy=0;entryX=0.5;entryY=0;entryDx=0;entryDy=0;endFill=0;strokeColor=#0000FF;strokeWidth=1;" parent="VfEH0Eg_Bxn7WgswUZxK-2" source="VfEH0Eg_Bxn7WgswUZxK-3" target="VfEH0Eg_Bxn7WgswUZxK-5" edge="1">
                    <mxGeometry width="50" height="50" relative="1" as="geometry">
                        <mxPoint x="530" y="460" as="sourcePoint"/>
                        <mxPoint x="580" y="410" as="targetPoint"/>
                    </mxGeometry>
                </mxCell>
                <mxCell id="VfEH0Eg_Bxn7WgswUZxK-8" style="edgeStyle=orthogonalEdgeStyle;html=1;entryX=0.5;entryY=0;entryDx=0;entryDy=0;endArrow=none;endFill=0;strokeColor=#0000FF;strokeWidth=1;" parent="VfEH0Eg_Bxn7WgswUZxK-2" source="VfEH0Eg_Bxn7WgswUZxK-7" target="VfEH0Eg_Bxn7WgswUZxK-3" edge="1">
                    <mxGeometry relative="1" as="geometry"/>
                </mxCell>
                <mxCell id="VfEH0Eg_Bxn7WgswUZxK-7" value="" style="ellipse;whiteSpace=wrap;html=1;aspect=fixed;strokeColor=#000000;fillColor=none;" parent="VfEH0Eg_Bxn7WgswUZxK-2" vertex="1">
                    <mxGeometry x="542" y="100" width="8" height="8" as="geometry"/>
                </mxCell>
                <mxCell id="70" style="edgeStyle=entityRelationEdgeStyle;startArrow=none;endArrow=none;segment=10;fontColor=#000000;strokeColor=#000000;strokeWidth=1;elbow=vertical;orthogonal=0;snapToPoint=0;rounded=1;" edge="1" parent="VfEH0Eg_Bxn7WgswUZxK-2" source="VfEH0Eg_Bxn7WgswUZxK-10" target="64">
                    <mxGeometry relative="1" as="geometry"/>
                </mxCell>
                <mxCell id="VfEH0Eg_Bxn7WgswUZxK-10" value="" style="ellipse;whiteSpace=wrap;html=1;aspect=fixed;strokeColor=#000000;fillColor=default;" parent="VfEH0Eg_Bxn7WgswUZxK-2" vertex="1">
                    <mxGeometry x="542" y="270" width="8" height="8" as="geometry"/>
                </mxCell>
                <mxCell id="71" style="edgeStyle=entityRelationEdgeStyle;startArrow=none;endArrow=none;segment=10;fontColor=#000000;strokeColor=#000000;strokeWidth=1;elbow=vertical;orthogonal=0;snapToPoint=0;rounded=1;" edge="1" parent="VfEH0Eg_Bxn7WgswUZxK-2" source="VfEH0Eg_Bxn7WgswUZxK-11" target="68">
                    <mxGeometry relative="1" as="geometry"/>
                </mxCell>
                <mxCell id="VfEH0Eg_Bxn7WgswUZxK-11" value="" style="ellipse;whiteSpace=wrap;html=1;aspect=fixed;strokeColor=#000000;fillColor=default;" parent="VfEH0Eg_Bxn7WgswUZxK-2" vertex="1">
                    <mxGeometry x="542" y="290" width="8" height="8" as="geometry"/>
                </mxCell>
                <mxCell id="73" style="edgeStyle=entityRelationEdgeStyle;startArrow=none;endArrow=none;segment=10;fontColor=#000000;strokeColor=#000000;strokeWidth=1;elbow=vertical;orthogonal=0;snapToPoint=0;rounded=1;" edge="1" parent="VfEH0Eg_Bxn7WgswUZxK-2" source="VfEH0Eg_Bxn7WgswUZxK-12" target="72">
                    <mxGeometry relative="1" as="geometry"/>
                </mxCell>
                <mxCell id="VfEH0Eg_Bxn7WgswUZxK-12" value="" style="ellipse;whiteSpace=wrap;html=1;aspect=fixed;strokeColor=#000000;fillColor=default;" parent="VfEH0Eg_Bxn7WgswUZxK-2" vertex="1">
                    <mxGeometry x="542" y="310" width="8" height="8" as="geometry"/>
                </mxCell>
                <mxCell id="VfEH0Eg_Bxn7WgswUZxK-13" value="" style="ellipse;whiteSpace=wrap;html=1;aspect=fixed;strokeColor=#000000;fillColor=default;" parent="VfEH0Eg_Bxn7WgswUZxK-2" vertex="1">
                    <mxGeometry x="542" y="330" width="8" height="8" as="geometry"/>
                </mxCell>
                <mxCell id="VfEH0Eg_Bxn7WgswUZxK-14" value="" style="ellipse;whiteSpace=wrap;html=1;aspect=fixed;strokeColor=#000000;fillColor=default;" parent="VfEH0Eg_Bxn7WgswUZxK-2" vertex="1">
                    <mxGeometry x="542" y="350" width="8" height="8" as="geometry"/>
                </mxCell>
                <mxCell id="VfEH0Eg_Bxn7WgswUZxK-15" value="" style="ellipse;whiteSpace=wrap;html=1;aspect=fixed;strokeColor=#000000;fillColor=default;" parent="VfEH0Eg_Bxn7WgswUZxK-2" vertex="1">
                    <mxGeometry x="542" y="370" width="8" height="8" as="geometry"/>
                </mxCell>
                <mxCell id="VfEH0Eg_Bxn7WgswUZxK-16" value="&lt;font color=&quot;#000000&quot;&gt;高祖&lt;/font&gt;" style="text;html=1;align=center;verticalAlign=middle;resizable=0;points=[];autosize=1;strokeColor=none;fillColor=#99FF99;rounded=1;" parent="VfEH0Eg_Bxn7WgswUZxK-2" vertex="1">
                    <mxGeometry x="484" y="246" width="40" height="20" as="geometry"/>
                </mxCell>
                <mxCell id="VfEH0Eg_Bxn7WgswUZxK-18" value="&lt;font color=&quot;#000000&quot;&gt;高后&lt;/font&gt;" style="text;html=1;align=center;verticalAlign=middle;resizable=0;points=[];autosize=1;strokeColor=none;fillColor=#99FF99;rounded=1;" parent="VfEH0Eg_Bxn7WgswUZxK-2" vertex="1">
                    <mxGeometry x="484" y="386" width="40" height="20" as="geometry"/>
                </mxCell>
                <mxCell id="VfEH0Eg_Bxn7WgswUZxK-23" style="edgeStyle=orthogonalEdgeStyle;html=1;exitX=0.5;exitY=1;exitDx=0;exitDy=0;entryX=0.5;entryY=0;entryDx=0;entryDy=0;fontColor=#000000;endArrow=none;endFill=0;strokeColor=#0000FF;strokeWidth=1;" parent="VfEH0Eg_Bxn7WgswUZxK-2" source="VfEH0Eg_Bxn7WgswUZxK-19" target="VfEH0Eg_Bxn7WgswUZxK-22" edge="1">
                    <mxGeometry relative="1" as="geometry"/>
                </mxCell>
                <mxCell id="xpBaOHlXI4stCzfS4Fe9-17" style="edgeStyle=orthogonalEdgeStyle;shape=connector;rounded=1;html=1;exitX=0;exitY=0.5;exitDx=0;exitDy=0;labelBackgroundColor=default;fontFamily=Helvetica;fontSize=11;fontColor=default;startArrow=none;startFill=0;endArrow=block;endFill=0;strokeColor=#0000FF;strokeWidth=1;" parent="VfEH0Eg_Bxn7WgswUZxK-2" source="VfEH0Eg_Bxn7WgswUZxK-19" target="VfEH0Eg_Bxn7WgswUZxK-21" edge="1">
                    <mxGeometry relative="1" as="geometry"/>
                </mxCell>
                <mxCell id="VfEH0Eg_Bxn7WgswUZxK-19" value="" style="ellipse;whiteSpace=wrap;html=1;aspect=fixed;strokeColor=#000000;fillColor=#99FFFF;" parent="VfEH0Eg_Bxn7WgswUZxK-2" vertex="1">
                    <mxGeometry x="540" y="520" width="12" height="12" as="geometry"/>
                </mxCell>
                <mxCell id="VfEH0Eg_Bxn7WgswUZxK-21" value="&lt;font color=&quot;#000000&quot;&gt;孝文&lt;/font&gt;" style="text;html=1;align=center;verticalAlign=middle;resizable=0;points=[];autosize=1;strokeColor=none;fillColor=#99FF99;rounded=1;" parent="VfEH0Eg_Bxn7WgswUZxK-2" vertex="1">
                    <mxGeometry x="484" y="516" width="40" height="20" as="geometry"/>
                </mxCell>
                <mxCell id="VfEH0Eg_Bxn7WgswUZxK-26" style="edgeStyle=orthogonalEdgeStyle;html=1;exitX=0.5;exitY=1;exitDx=0;exitDy=0;entryX=0.5;entryY=0;entryDx=0;entryDy=0;fontColor=#000000;endArrow=none;endFill=0;strokeColor=#0000FF;strokeWidth=1;" parent="VfEH0Eg_Bxn7WgswUZxK-2" source="VfEH0Eg_Bxn7WgswUZxK-22" target="VfEH0Eg_Bxn7WgswUZxK-25" edge="1">
                    <mxGeometry relative="1" as="geometry"/>
                </mxCell>
                <mxCell id="xpBaOHlXI4stCzfS4Fe9-18" style="edgeStyle=orthogonalEdgeStyle;shape=connector;rounded=1;html=1;exitX=0;exitY=0.5;exitDx=0;exitDy=0;labelBackgroundColor=default;fontFamily=Helvetica;fontSize=11;fontColor=default;startArrow=none;startFill=0;endArrow=block;endFill=0;strokeColor=#0000FF;strokeWidth=1;" parent="VfEH0Eg_Bxn7WgswUZxK-2" source="VfEH0Eg_Bxn7WgswUZxK-22" target="VfEH0Eg_Bxn7WgswUZxK-24" edge="1">
                    <mxGeometry relative="1" as="geometry"/>
                </mxCell>
                <mxCell id="VfEH0Eg_Bxn7WgswUZxK-22" value="" style="ellipse;whiteSpace=wrap;html=1;aspect=fixed;strokeColor=#000000;fillColor=#99FFFF;" parent="VfEH0Eg_Bxn7WgswUZxK-2" vertex="1">
                    <mxGeometry x="540" y="670" width="12" height="12" as="geometry"/>
                </mxCell>
                <mxCell id="VfEH0Eg_Bxn7WgswUZxK-24" value="&lt;font color=&quot;#000000&quot;&gt;孝景&lt;/font&gt;" style="text;html=1;align=center;verticalAlign=middle;resizable=0;points=[];autosize=1;strokeColor=none;fillColor=#99FF99;rounded=1;" parent="VfEH0Eg_Bxn7WgswUZxK-2" vertex="1">
                    <mxGeometry x="484" y="666" width="40" height="20" as="geometry"/>
                </mxCell>
                <mxCell id="VfEH0Eg_Bxn7WgswUZxK-29" style="edgeStyle=orthogonalEdgeStyle;html=1;entryX=0.5;entryY=0;entryDx=0;entryDy=0;fontColor=#000000;endArrow=none;endFill=0;strokeColor=#0000FF;strokeWidth=1;" parent="VfEH0Eg_Bxn7WgswUZxK-2" source="VfEH0Eg_Bxn7WgswUZxK-25" target="VfEH0Eg_Bxn7WgswUZxK-28" edge="1">
                    <mxGeometry relative="1" as="geometry"/>
                </mxCell>
                <mxCell id="xpBaOHlXI4stCzfS4Fe9-19" style="edgeStyle=orthogonalEdgeStyle;shape=connector;rounded=1;html=1;exitX=0;exitY=0.5;exitDx=0;exitDy=0;labelBackgroundColor=default;fontFamily=Helvetica;fontSize=11;fontColor=default;startArrow=none;startFill=0;endArrow=block;endFill=0;strokeColor=#0000FF;strokeWidth=1;" parent="VfEH0Eg_Bxn7WgswUZxK-2" source="VfEH0Eg_Bxn7WgswUZxK-25" target="VfEH0Eg_Bxn7WgswUZxK-27" edge="1">
                    <mxGeometry relative="1" as="geometry"/>
                </mxCell>
                <mxCell id="VfEH0Eg_Bxn7WgswUZxK-25" value="" style="ellipse;whiteSpace=wrap;html=1;aspect=fixed;strokeColor=#000000;fillColor=#99FFFF;" parent="VfEH0Eg_Bxn7WgswUZxK-2" vertex="1">
                    <mxGeometry x="540" y="840" width="12" height="12" as="geometry"/>
                </mxCell>
                <mxCell id="VfEH0Eg_Bxn7WgswUZxK-27" value="&lt;font color=&quot;#000000&quot;&gt;孝武&lt;/font&gt;" style="text;html=1;align=center;verticalAlign=middle;resizable=0;points=[];autosize=1;strokeColor=none;fillColor=#99FF99;rounded=1;" parent="VfEH0Eg_Bxn7WgswUZxK-2" vertex="1">
                    <mxGeometry x="484" y="836" width="40" height="20" as="geometry"/>
                </mxCell>
                <mxCell id="VfEH0Eg_Bxn7WgswUZxK-33" style="edgeStyle=orthogonalEdgeStyle;html=1;exitX=0.5;exitY=1;exitDx=0;exitDy=0;entryX=0.5;entryY=0;entryDx=0;entryDy=0;fontColor=#000000;endArrow=none;endFill=0;strokeColor=#0000FF;strokeWidth=1;" parent="VfEH0Eg_Bxn7WgswUZxK-2" source="VfEH0Eg_Bxn7WgswUZxK-28" target="VfEH0Eg_Bxn7WgswUZxK-31" edge="1">
                    <mxGeometry relative="1" as="geometry"/>
                </mxCell>
                <mxCell id="xpBaOHlXI4stCzfS4Fe9-20" style="edgeStyle=orthogonalEdgeStyle;shape=connector;rounded=1;html=1;exitX=0;exitY=0.5;exitDx=0;exitDy=0;labelBackgroundColor=default;fontFamily=Helvetica;fontSize=11;fontColor=default;startArrow=none;startFill=0;endArrow=block;endFill=0;strokeColor=#0000FF;strokeWidth=1;" parent="VfEH0Eg_Bxn7WgswUZxK-2" source="VfEH0Eg_Bxn7WgswUZxK-28" target="VfEH0Eg_Bxn7WgswUZxK-30" edge="1">
                    <mxGeometry relative="1" as="geometry"/>
                </mxCell>
                <mxCell id="VfEH0Eg_Bxn7WgswUZxK-28" value="" style="ellipse;whiteSpace=wrap;html=1;aspect=fixed;strokeColor=#000000;fillColor=#99FFFF;" parent="VfEH0Eg_Bxn7WgswUZxK-2" vertex="1">
                    <mxGeometry x="540" y="1040" width="12" height="12" as="geometry"/>
                </mxCell>
                <mxCell id="VfEH0Eg_Bxn7WgswUZxK-30" value="&lt;font color=&quot;#000000&quot;&gt;孝昭&lt;/font&gt;" style="text;html=1;align=center;verticalAlign=middle;resizable=0;points=[];autosize=1;strokeColor=none;fillColor=#99FF99;rounded=1;" parent="VfEH0Eg_Bxn7WgswUZxK-2" vertex="1">
                    <mxGeometry x="484" y="1036" width="40" height="20" as="geometry"/>
                </mxCell>
                <mxCell id="VfEH0Eg_Bxn7WgswUZxK-36" style="edgeStyle=orthogonalEdgeStyle;html=1;exitX=0.5;exitY=1;exitDx=0;exitDy=0;entryX=0.5;entryY=0;entryDx=0;entryDy=0;fontColor=#000000;endArrow=none;endFill=0;strokeColor=#0000FF;strokeWidth=1;" parent="VfEH0Eg_Bxn7WgswUZxK-2" source="VfEH0Eg_Bxn7WgswUZxK-31" target="VfEH0Eg_Bxn7WgswUZxK-35" edge="1">
                    <mxGeometry relative="1" as="geometry"/>
                </mxCell>
                <mxCell id="xpBaOHlXI4stCzfS4Fe9-21" style="edgeStyle=orthogonalEdgeStyle;shape=connector;rounded=1;html=1;exitX=0;exitY=0.5;exitDx=0;exitDy=0;labelBackgroundColor=default;fontFamily=Helvetica;fontSize=11;fontColor=default;startArrow=none;startFill=0;endArrow=block;endFill=0;strokeColor=#0000FF;strokeWidth=1;" parent="VfEH0Eg_Bxn7WgswUZxK-2" source="VfEH0Eg_Bxn7WgswUZxK-31" target="VfEH0Eg_Bxn7WgswUZxK-32" edge="1">
                    <mxGeometry relative="1" as="geometry"/>
                </mxCell>
                <mxCell id="VfEH0Eg_Bxn7WgswUZxK-31" value="" style="ellipse;whiteSpace=wrap;html=1;aspect=fixed;strokeColor=#000000;fillColor=#99FFFF;" parent="VfEH0Eg_Bxn7WgswUZxK-2" vertex="1">
                    <mxGeometry x="540" y="1230" width="12" height="12" as="geometry"/>
                </mxCell>
                <mxCell id="VfEH0Eg_Bxn7WgswUZxK-32" value="&lt;font color=&quot;#000000&quot;&gt;孝宣&lt;/font&gt;" style="text;html=1;align=center;verticalAlign=middle;resizable=0;points=[];autosize=1;strokeColor=none;fillColor=#99FF99;rounded=1;" parent="VfEH0Eg_Bxn7WgswUZxK-2" vertex="1">
                    <mxGeometry x="484" y="1226" width="40" height="20" as="geometry"/>
                </mxCell>
                <mxCell id="VfEH0Eg_Bxn7WgswUZxK-34" value="&lt;font color=&quot;#000000&quot;&gt;孝元&lt;/font&gt;" style="text;html=1;align=center;verticalAlign=middle;resizable=0;points=[];autosize=1;strokeColor=none;fillColor=#99FF99;rounded=1;" parent="VfEH0Eg_Bxn7WgswUZxK-2" vertex="1">
                    <mxGeometry x="484" y="1456" width="40" height="20" as="geometry"/>
                </mxCell>
                <mxCell id="VfEH0Eg_Bxn7WgswUZxK-39" style="edgeStyle=orthogonalEdgeStyle;html=1;exitX=0.5;exitY=1;exitDx=0;exitDy=0;entryX=0.5;entryY=0;entryDx=0;entryDy=0;fontColor=#000000;endArrow=none;endFill=0;strokeColor=#0000FF;strokeWidth=1;" parent="VfEH0Eg_Bxn7WgswUZxK-2" source="VfEH0Eg_Bxn7WgswUZxK-35" target="VfEH0Eg_Bxn7WgswUZxK-38" edge="1">
                    <mxGeometry relative="1" as="geometry"/>
                </mxCell>
                <mxCell id="xpBaOHlXI4stCzfS4Fe9-22" style="edgeStyle=orthogonalEdgeStyle;shape=connector;rounded=1;html=1;exitX=0;exitY=0.5;exitDx=0;exitDy=0;labelBackgroundColor=default;fontFamily=Helvetica;fontSize=11;fontColor=default;startArrow=none;startFill=0;endArrow=block;endFill=0;strokeColor=#0000FF;strokeWidth=1;" parent="VfEH0Eg_Bxn7WgswUZxK-2" source="VfEH0Eg_Bxn7WgswUZxK-35" target="VfEH0Eg_Bxn7WgswUZxK-34" edge="1">
                    <mxGeometry relative="1" as="geometry"/>
                </mxCell>
                <mxCell id="VfEH0Eg_Bxn7WgswUZxK-35" value="" style="ellipse;whiteSpace=wrap;html=1;aspect=fixed;strokeColor=#000000;fillColor=#99FFFF;" parent="VfEH0Eg_Bxn7WgswUZxK-2" vertex="1">
                    <mxGeometry x="540" y="1460" width="12" height="12" as="geometry"/>
                </mxCell>
                <mxCell id="VfEH0Eg_Bxn7WgswUZxK-37" value="&lt;font color=&quot;#000000&quot;&gt;孝成&lt;/font&gt;" style="text;html=1;align=center;verticalAlign=middle;resizable=0;points=[];autosize=1;strokeColor=none;fillColor=#99FF99;rounded=1;" parent="VfEH0Eg_Bxn7WgswUZxK-2" vertex="1">
                    <mxGeometry x="484" y="1596" width="40" height="20" as="geometry"/>
                </mxCell>
                <mxCell id="VfEH0Eg_Bxn7WgswUZxK-43" style="edgeStyle=orthogonalEdgeStyle;html=1;exitX=0.5;exitY=1;exitDx=0;exitDy=0;entryX=0.5;entryY=0;entryDx=0;entryDy=0;fontColor=#000000;endArrow=none;endFill=0;strokeColor=#0000FF;strokeWidth=1;" parent="VfEH0Eg_Bxn7WgswUZxK-2" source="VfEH0Eg_Bxn7WgswUZxK-38" target="VfEH0Eg_Bxn7WgswUZxK-41" edge="1">
                    <mxGeometry relative="1" as="geometry"/>
                </mxCell>
                <mxCell id="xpBaOHlXI4stCzfS4Fe9-23" style="edgeStyle=orthogonalEdgeStyle;shape=connector;rounded=1;html=1;exitX=0;exitY=0.5;exitDx=0;exitDy=0;labelBackgroundColor=default;fontFamily=Helvetica;fontSize=11;fontColor=default;startArrow=none;startFill=0;endArrow=block;endFill=0;strokeColor=#0000FF;strokeWidth=1;" parent="VfEH0Eg_Bxn7WgswUZxK-2" source="VfEH0Eg_Bxn7WgswUZxK-38" target="VfEH0Eg_Bxn7WgswUZxK-37" edge="1">
                    <mxGeometry relative="1" as="geometry"/>
                </mxCell>
                <mxCell id="VfEH0Eg_Bxn7WgswUZxK-38" value="" style="ellipse;whiteSpace=wrap;html=1;aspect=fixed;strokeColor=#000000;fillColor=#99FFFF;" parent="VfEH0Eg_Bxn7WgswUZxK-2" vertex="1">
                    <mxGeometry x="540" y="1600" width="12" height="12" as="geometry"/>
                </mxCell>
                <mxCell id="VfEH0Eg_Bxn7WgswUZxK-40" value="&lt;font color=&quot;#000000&quot;&gt;孝哀&lt;/font&gt;" style="text;html=1;align=center;verticalAlign=middle;resizable=0;points=[];autosize=1;strokeColor=none;fillColor=#99FF99;rounded=1;" parent="VfEH0Eg_Bxn7WgswUZxK-2" vertex="1">
                    <mxGeometry x="484" y="1736" width="40" height="20" as="geometry"/>
                </mxCell>
                <mxCell id="VfEH0Eg_Bxn7WgswUZxK-46" style="edgeStyle=orthogonalEdgeStyle;html=1;exitX=0.5;exitY=1;exitDx=0;exitDy=0;entryX=0.5;entryY=0;entryDx=0;entryDy=0;fontColor=#000000;endArrow=none;endFill=0;strokeColor=#0000FF;strokeWidth=1;" parent="VfEH0Eg_Bxn7WgswUZxK-2" source="VfEH0Eg_Bxn7WgswUZxK-41" target="VfEH0Eg_Bxn7WgswUZxK-45" edge="1">
                    <mxGeometry relative="1" as="geometry"/>
                </mxCell>
                <mxCell id="xpBaOHlXI4stCzfS4Fe9-27" style="edgeStyle=orthogonalEdgeStyle;shape=connector;rounded=1;html=1;exitX=0;exitY=0.5;exitDx=0;exitDy=0;labelBackgroundColor=default;fontFamily=Helvetica;fontSize=11;fontColor=default;startArrow=none;startFill=0;endArrow=block;endFill=0;strokeColor=#0000FF;strokeWidth=1;" parent="VfEH0Eg_Bxn7WgswUZxK-2" source="VfEH0Eg_Bxn7WgswUZxK-41" target="VfEH0Eg_Bxn7WgswUZxK-40" edge="1">
                    <mxGeometry relative="1" as="geometry"/>
                </mxCell>
                <mxCell id="VfEH0Eg_Bxn7WgswUZxK-41" value="" style="ellipse;whiteSpace=wrap;html=1;aspect=fixed;strokeColor=#000000;fillColor=#99FFFF;" parent="VfEH0Eg_Bxn7WgswUZxK-2" vertex="1">
                    <mxGeometry x="540" y="1740" width="12" height="12" as="geometry"/>
                </mxCell>
                <mxCell id="VfEH0Eg_Bxn7WgswUZxK-44" value="&lt;font color=&quot;#000000&quot;&gt;孝平&lt;/font&gt;" style="text;html=1;align=center;verticalAlign=middle;resizable=0;points=[];autosize=1;strokeColor=none;fillColor=#99FF99;rounded=1;" parent="VfEH0Eg_Bxn7WgswUZxK-2" vertex="1">
                    <mxGeometry x="484" y="1866" width="40" height="20" as="geometry"/>
                </mxCell>
                <mxCell id="VfEH0Eg_Bxn7WgswUZxK-49" style="edgeStyle=orthogonalEdgeStyle;html=1;exitX=0.5;exitY=1;exitDx=0;exitDy=0;entryX=0.5;entryY=0;entryDx=0;entryDy=0;fontColor=#000000;endArrow=none;endFill=0;strokeColor=#0000FF;strokeWidth=1;" parent="VfEH0Eg_Bxn7WgswUZxK-2" source="VfEH0Eg_Bxn7WgswUZxK-45" target="VfEH0Eg_Bxn7WgswUZxK-48" edge="1">
                    <mxGeometry relative="1" as="geometry"/>
                </mxCell>
                <mxCell id="xpBaOHlXI4stCzfS4Fe9-26" style="edgeStyle=orthogonalEdgeStyle;shape=connector;rounded=1;html=1;exitX=0;exitY=0.5;exitDx=0;exitDy=0;labelBackgroundColor=default;fontFamily=Helvetica;fontSize=11;fontColor=default;startArrow=none;startFill=0;endArrow=block;endFill=0;strokeColor=#0000FF;strokeWidth=1;" parent="VfEH0Eg_Bxn7WgswUZxK-2" source="VfEH0Eg_Bxn7WgswUZxK-45" target="VfEH0Eg_Bxn7WgswUZxK-44" edge="1">
                    <mxGeometry relative="1" as="geometry"/>
                </mxCell>
                <mxCell id="VfEH0Eg_Bxn7WgswUZxK-45" value="" style="ellipse;whiteSpace=wrap;html=1;aspect=fixed;strokeColor=#000000;fillColor=#99FFFF;" parent="VfEH0Eg_Bxn7WgswUZxK-2" vertex="1">
                    <mxGeometry x="540" y="1870" width="12" height="12" as="geometry"/>
                </mxCell>
                <mxCell id="VfEH0Eg_Bxn7WgswUZxK-47" value="&lt;font color=&quot;#000000&quot;&gt;居摄&lt;/font&gt;" style="text;html=1;align=center;verticalAlign=middle;resizable=0;points=[];autosize=1;strokeColor=none;fillColor=#99FF99;rounded=1;" parent="VfEH0Eg_Bxn7WgswUZxK-2" vertex="1">
                    <mxGeometry x="484" y="1996" width="40" height="20" as="geometry"/>
                </mxCell>
                <mxCell id="VfEH0Eg_Bxn7WgswUZxK-52" style="edgeStyle=orthogonalEdgeStyle;html=1;exitX=0.5;exitY=1;exitDx=0;exitDy=0;entryX=0.5;entryY=0;entryDx=0;entryDy=0;fontColor=#000000;endArrow=none;endFill=0;strokeColor=#0000FF;strokeWidth=1;" parent="VfEH0Eg_Bxn7WgswUZxK-2" source="VfEH0Eg_Bxn7WgswUZxK-48" target="VfEH0Eg_Bxn7WgswUZxK-51" edge="1">
                    <mxGeometry relative="1" as="geometry"/>
                </mxCell>
                <mxCell id="xpBaOHlXI4stCzfS4Fe9-28" style="edgeStyle=orthogonalEdgeStyle;shape=connector;rounded=1;html=1;exitX=0;exitY=0.5;exitDx=0;exitDy=0;entryX=0.983;entryY=0.534;entryDx=0;entryDy=0;entryPerimeter=0;labelBackgroundColor=default;fontFamily=Helvetica;fontSize=11;fontColor=default;startArrow=none;startFill=0;endArrow=block;endFill=0;strokeColor=#0000FF;strokeWidth=1;" parent="VfEH0Eg_Bxn7WgswUZxK-2" source="VfEH0Eg_Bxn7WgswUZxK-48" target="VfEH0Eg_Bxn7WgswUZxK-47" edge="1">
                    <mxGeometry relative="1" as="geometry"/>
                </mxCell>
                <mxCell id="VfEH0Eg_Bxn7WgswUZxK-48" value="" style="ellipse;whiteSpace=wrap;html=1;aspect=fixed;strokeColor=#000000;fillColor=#99FFFF;" parent="VfEH0Eg_Bxn7WgswUZxK-2" vertex="1">
                    <mxGeometry x="540" y="2000" width="12" height="12" as="geometry"/>
                </mxCell>
                <mxCell id="VfEH0Eg_Bxn7WgswUZxK-50" value="&lt;font color=&quot;#000000&quot;&gt;新&lt;/font&gt;" style="text;html=1;align=center;verticalAlign=middle;resizable=0;points=[];autosize=1;strokeColor=none;fillColor=#99FF99;rounded=1;" parent="VfEH0Eg_Bxn7WgswUZxK-2" vertex="1">
                    <mxGeometry x="494" y="2126" width="30" height="20" as="geometry"/>
                </mxCell>
                <mxCell id="xpBaOHlXI4stCzfS4Fe9-11" style="edgeStyle=orthogonalEdgeStyle;shape=connector;rounded=1;html=1;exitX=0.5;exitY=1;exitDx=0;exitDy=0;entryX=0.5;entryY=0;entryDx=0;entryDy=0;labelBackgroundColor=default;fontFamily=Helvetica;fontSize=11;fontColor=#000000;endArrow=none;endFill=0;strokeColor=#0000FF;strokeWidth=1;" parent="VfEH0Eg_Bxn7WgswUZxK-2" source="VfEH0Eg_Bxn7WgswUZxK-51" target="xpBaOHlXI4stCzfS4Fe9-9" edge="1">
                    <mxGeometry relative="1" as="geometry"/>
                </mxCell>
                <mxCell id="xpBaOHlXI4stCzfS4Fe9-29" style="edgeStyle=orthogonalEdgeStyle;shape=connector;rounded=1;html=1;exitX=0;exitY=0.5;exitDx=0;exitDy=0;labelBackgroundColor=default;fontFamily=Helvetica;fontSize=11;fontColor=default;startArrow=none;startFill=0;endArrow=block;endFill=0;strokeColor=#0000FF;strokeWidth=1;" parent="VfEH0Eg_Bxn7WgswUZxK-2" source="VfEH0Eg_Bxn7WgswUZxK-51" target="VfEH0Eg_Bxn7WgswUZxK-50" edge="1">
                    <mxGeometry relative="1" as="geometry"/>
                </mxCell>
                <mxCell id="VfEH0Eg_Bxn7WgswUZxK-51" value="" style="ellipse;whiteSpace=wrap;html=1;aspect=fixed;strokeColor=#000000;fillColor=#99FFFF;" parent="VfEH0Eg_Bxn7WgswUZxK-2" vertex="1">
                    <mxGeometry x="540" y="2130" width="12" height="12" as="geometry"/>
                </mxCell>
                <mxCell id="xpBaOHlXI4stCzfS4Fe9-8" value="&lt;font color=&quot;#000000&quot;&gt;东汉&lt;/font&gt;" style="text;html=1;align=center;verticalAlign=middle;resizable=0;points=[];autosize=1;strokeColor=none;fillColor=#FF0080;rounded=1;" parent="VfEH0Eg_Bxn7WgswUZxK-2" vertex="1">
                    <mxGeometry x="484" y="2306" width="40" height="20" as="geometry"/>
                </mxCell>
                <mxCell id="xpBaOHlXI4stCzfS4Fe9-30" style="edgeStyle=orthogonalEdgeStyle;shape=connector;rounded=1;html=1;exitX=0;exitY=0.5;exitDx=0;exitDy=0;labelBackgroundColor=default;fontFamily=Helvetica;fontSize=11;fontColor=default;startArrow=none;startFill=0;endArrow=block;endFill=0;strokeColor=#0000FF;strokeWidth=1;" parent="VfEH0Eg_Bxn7WgswUZxK-2" source="xpBaOHlXI4stCzfS4Fe9-9" target="xpBaOHlXI4stCzfS4Fe9-8" edge="1">
                    <mxGeometry relative="1" as="geometry"/>
                </mxCell>
                <mxCell id="xpBaOHlXI4stCzfS4Fe9-9" value="" style="ellipse;whiteSpace=wrap;html=1;aspect=fixed;strokeColor=#000000;fillColor=#000000;" parent="VfEH0Eg_Bxn7WgswUZxK-2" vertex="1">
                    <mxGeometry x="540" y="2310" width="12" height="12" as="geometry"/>
                </mxCell>
                <mxCell id="13" style="edgeStyle=entityRelationEdgeStyle;startArrow=none;endArrow=none;segment=10;fontColor=#000000;strokeColor=#000000;strokeWidth=1;elbow=vertical;orthogonal=0;snapToPoint=0;rounded=1;" parent="VfEH0Eg_Bxn7WgswUZxK-2" source="VfEH0Eg_Bxn7WgswUZxK-9" target="12" edge="1">
                    <mxGeometry relative="1" as="geometry"/>
                </mxCell>
                <mxCell id="VfEH0Eg_Bxn7WgswUZxK-9" value="" style="ellipse;whiteSpace=wrap;html=1;aspect=fixed;strokeColor=#000000;fillColor=default;" parent="VfEH0Eg_Bxn7WgswUZxK-2" vertex="1">
                    <mxGeometry x="542" y="130" width="8" height="8" as="geometry"/>
                </mxCell>
                <mxCell id="16" style="edgeStyle=entityRelationEdgeStyle;startArrow=none;endArrow=none;segment=10;fontColor=#000000;strokeColor=#000000;strokeWidth=1;elbow=vertical;orthogonal=0;snapToPoint=0;rounded=1;" parent="VfEH0Eg_Bxn7WgswUZxK-2" source="9" target="15" edge="1">
                    <mxGeometry relative="1" as="geometry"/>
                </mxCell>
                <mxCell id="9" value="" style="ellipse;whiteSpace=wrap;html=1;aspect=fixed;strokeColor=#000000;fillColor=default;" parent="VfEH0Eg_Bxn7WgswUZxK-2" vertex="1">
                    <mxGeometry x="542" y="146" width="8" height="8" as="geometry"/>
                </mxCell>
                <mxCell id="12" value="秦始皇崩于沙丘平台，胡亥、赵高与丞相李斯矫诏立胡亥为太子，并赐死公子扶苏、蒙恬。&lt;br&gt;行至咸阳发丧，胡亥袭位为二世皇帝。" style="text;html=1;align=left;verticalAlign=middle;resizable=0;points=[];autosize=1;strokeColor=#000000;fillColor=none;fontColor=#000000;dashed=1;spacingLeft=4;spacingTop=2;spacing=0;rounded=1;" parent="VfEH0Eg_Bxn7WgswUZxK-2" vertex="1">
                    <mxGeometry x="590" y="90" width="500" height="40" as="geometry"/>
                </mxCell>
                <mxCell id="15" value="胡亥任赵高用事，行诛大臣及诸公子，复作阿房宫，发卒屯卫咸阳。天下大乱，&lt;span style=&quot;text-align: center&quot;&gt;秦失其鹿，天下共逐之。&lt;/span&gt;" style="text;html=1;align=left;verticalAlign=middle;resizable=0;points=[];autosize=1;strokeColor=#000000;fillColor=none;fontColor=#000000;dashed=1;spacingLeft=4;spacingTop=2;spacing=0;rounded=1;" parent="VfEH0Eg_Bxn7WgswUZxK-2" vertex="1">
                    <mxGeometry x="-70" y="113" width="570" height="20" as="geometry"/>
                </mxCell>
                <mxCell id="19" style="edgeStyle=entityRelationEdgeStyle;startArrow=none;endArrow=none;segment=10;fontColor=#000000;strokeColor=#000000;strokeWidth=1;elbow=vertical;orthogonal=0;snapToPoint=0;rounded=1;" parent="VfEH0Eg_Bxn7WgswUZxK-2" source="17" target="18" edge="1">
                    <mxGeometry relative="1" as="geometry"/>
                </mxCell>
                <mxCell id="17" value="" style="ellipse;whiteSpace=wrap;html=1;aspect=fixed;strokeColor=#000000;fillColor=default;" parent="VfEH0Eg_Bxn7WgswUZxK-2" vertex="1">
                    <mxGeometry x="542" y="162" width="8" height="8" as="geometry"/>
                </mxCell>
                <mxCell id="18" value="陈胜、吴广谪戍渔阳郡，屯大泽乡，失期当斩，乃谋起义。翌日，招徒属呼“王侯将相宁有种乎”起义。" style="text;html=1;align=left;verticalAlign=middle;resizable=0;points=[];autosize=1;strokeColor=#000000;fillColor=none;fontColor=#000000;dashed=1;spacingLeft=4;spacingTop=2;spacing=0;rounded=1;" parent="VfEH0Eg_Bxn7WgswUZxK-2" vertex="1">
                    <mxGeometry x="590" y="142" width="560" height="20" as="geometry"/>
                </mxCell>
                <mxCell id="22" style="edgeStyle=entityRelationEdgeStyle;startArrow=none;endArrow=none;segment=10;fontColor=#000000;strokeColor=#000000;strokeWidth=1;elbow=vertical;orthogonal=0;snapToPoint=0;rounded=1;" parent="VfEH0Eg_Bxn7WgswUZxK-2" source="20" target="21" edge="1">
                    <mxGeometry relative="1" as="geometry"/>
                </mxCell>
                <mxCell id="20" value="" style="ellipse;whiteSpace=wrap;html=1;aspect=fixed;strokeColor=#FF66B3;fillColor=#FF66B3;" parent="VfEH0Eg_Bxn7WgswUZxK-2" vertex="1">
                    <mxGeometry x="542" y="179" width="8" height="8" as="geometry"/>
                </mxCell>
                <mxCell id="21" value="高祖姓刘，讳邦。秦时为泗水亭长，二世元年以沛响应陈胜，称沛公，萧何、曹参、樊哙从焉。" style="text;html=1;align=left;verticalAlign=middle;resizable=0;points=[];autosize=1;strokeColor=#000000;fillColor=none;fontColor=#000000;dashed=1;spacingLeft=4;spacingTop=2;spacing=0;rounded=1;" parent="VfEH0Eg_Bxn7WgswUZxK-2" vertex="1">
                    <mxGeometry x="-44" y="142" width="520" height="20" as="geometry"/>
                </mxCell>
                <mxCell id="50" value="" style="group" parent="VfEH0Eg_Bxn7WgswUZxK-2" vertex="1" connectable="0">
                    <mxGeometry x="150" y="386" width="186" height="161" as="geometry"/>
                </mxCell>
                <mxCell id="xpBaOHlXI4stCzfS4Fe9-4" value="吕公" style="text;html=1;strokeColor=none;fillColor=none;align=center;verticalAlign=middle;whiteSpace=wrap;rounded=0;dashed=1;fontColor=#000000;" parent="50" vertex="1">
                    <mxGeometry x="91" width="30" height="20" as="geometry"/>
                </mxCell>
                <mxCell id="xpBaOHlXI4stCzfS4Fe9-5" value="吕泽" style="text;html=1;strokeColor=none;fillColor=none;align=center;verticalAlign=middle;whiteSpace=wrap;rounded=0;dashed=1;fontColor=#000000;" parent="50" vertex="1">
                    <mxGeometry x="16" y="60" width="30" height="20" as="geometry"/>
                </mxCell>
                <mxCell id="xpBaOHlXI4stCzfS4Fe9-1" style="rounded=0;html=1;exitX=0.5;exitY=1;exitDx=0;exitDy=0;entryX=0.5;entryY=0;entryDx=0;entryDy=0;fontColor=#000000;endArrow=none;endFill=0;strokeColor=#000000;strokeWidth=1;elbow=vertical;edgeStyle=orthogonalEdgeStyle;" parent="50" source="xpBaOHlXI4stCzfS4Fe9-4" target="xpBaOHlXI4stCzfS4Fe9-5" edge="1">
                    <mxGeometry relative="1" as="geometry"/>
                </mxCell>
                <mxCell id="xpBaOHlXI4stCzfS4Fe9-6" value="吕释之" style="text;html=1;strokeColor=none;fillColor=none;align=center;verticalAlign=middle;whiteSpace=wrap;rounded=0;dashed=1;fontColor=#000000;" parent="50" vertex="1">
                    <mxGeometry x="68" y="60" width="40" height="20" as="geometry"/>
                </mxCell>
                <mxCell id="xpBaOHlXI4stCzfS4Fe9-2" style="edgeStyle=orthogonalEdgeStyle;rounded=0;html=1;exitX=0.5;exitY=1;exitDx=0;exitDy=0;entryX=0.5;entryY=0;entryDx=0;entryDy=0;fontColor=#000000;endArrow=none;endFill=0;strokeColor=#000000;strokeWidth=1;elbow=vertical;" parent="50" source="xpBaOHlXI4stCzfS4Fe9-4" target="xpBaOHlXI4stCzfS4Fe9-6" edge="1">
                    <mxGeometry relative="1" as="geometry"/>
                </mxCell>
                <mxCell id="xpBaOHlXI4stCzfS4Fe9-7" value="吕雉" style="text;html=1;strokeColor=none;fillColor=none;align=center;verticalAlign=middle;whiteSpace=wrap;rounded=0;dashed=1;fontColor=#000000;" parent="50" vertex="1">
                    <mxGeometry x="116" y="60" width="30" height="20" as="geometry"/>
                </mxCell>
                <mxCell id="xpBaOHlXI4stCzfS4Fe9-3" style="edgeStyle=orthogonalEdgeStyle;rounded=0;html=1;exitX=0.5;exitY=1;exitDx=0;exitDy=0;entryX=0.5;entryY=0;entryDx=0;entryDy=0;fontColor=#000000;endArrow=none;endFill=0;strokeColor=#000000;strokeWidth=1;elbow=vertical;" parent="50" source="xpBaOHlXI4stCzfS4Fe9-4" target="xpBaOHlXI4stCzfS4Fe9-7" edge="1">
                    <mxGeometry relative="1" as="geometry"/>
                </mxCell>
                <mxCell id="36" value="吕台" style="text;html=1;strokeColor=none;fillColor=none;align=center;verticalAlign=middle;whiteSpace=wrap;rounded=0;dashed=1;fontColor=#000000;" parent="50" vertex="1">
                    <mxGeometry y="100" width="30" height="20" as="geometry"/>
                </mxCell>
                <mxCell id="43" style="edgeStyle=orthogonalEdgeStyle;shape=connector;rounded=0;html=1;exitX=0.5;exitY=1;exitDx=0;exitDy=0;entryX=0.5;entryY=0;entryDx=0;entryDy=0;labelBackgroundColor=default;fontFamily=Helvetica;fontSize=11;fontColor=#000000;endArrow=none;endFill=0;strokeColor=#000000;strokeWidth=1;elbow=vertical;" parent="50" source="xpBaOHlXI4stCzfS4Fe9-5" target="36" edge="1">
                    <mxGeometry relative="1" as="geometry"/>
                </mxCell>
                <mxCell id="37" value="吕产" style="text;html=1;strokeColor=none;fillColor=none;align=center;verticalAlign=middle;whiteSpace=wrap;rounded=0;dashed=1;fontColor=#000000;" parent="50" vertex="1">
                    <mxGeometry x="32" y="100" width="30" height="20" as="geometry"/>
                </mxCell>
                <mxCell id="48" style="edgeStyle=orthogonalEdgeStyle;shape=connector;rounded=0;html=1;exitX=0.5;exitY=1;exitDx=0;exitDy=0;entryX=0.5;entryY=0;entryDx=0;entryDy=0;labelBackgroundColor=default;fontFamily=Helvetica;fontSize=11;fontColor=#000000;endArrow=none;endFill=0;strokeColor=#000000;strokeWidth=1;elbow=vertical;" parent="50" source="xpBaOHlXI4stCzfS4Fe9-5" target="37" edge="1">
                    <mxGeometry relative="1" as="geometry"/>
                </mxCell>
                <mxCell id="38" value="吕种" style="text;html=1;strokeColor=none;fillColor=none;align=center;verticalAlign=middle;whiteSpace=wrap;rounded=0;dashed=1;fontColor=#000000;" parent="50" vertex="1">
                    <mxGeometry x="58" y="100" width="30" height="20" as="geometry"/>
                </mxCell>
                <mxCell id="46" style="edgeStyle=orthogonalEdgeStyle;shape=connector;rounded=0;html=1;exitX=0.5;exitY=1;exitDx=0;exitDy=0;entryX=0.5;entryY=0;entryDx=0;entryDy=0;labelBackgroundColor=default;fontFamily=Helvetica;fontSize=11;fontColor=#000000;endArrow=none;endFill=0;strokeColor=#000000;strokeWidth=1;elbow=vertical;" parent="50" source="xpBaOHlXI4stCzfS4Fe9-6" target="38" edge="1">
                    <mxGeometry relative="1" as="geometry"/>
                </mxCell>
                <mxCell id="39" value="吕禄" style="text;html=1;strokeColor=none;fillColor=none;align=center;verticalAlign=middle;whiteSpace=wrap;rounded=0;dashed=1;fontColor=#000000;" parent="50" vertex="1">
                    <mxGeometry x="88" y="100" width="30" height="20" as="geometry"/>
                </mxCell>
                <mxCell id="49" style="edgeStyle=orthogonalEdgeStyle;shape=connector;rounded=0;html=1;exitX=0.5;exitY=1;exitDx=0;exitDy=0;entryX=0.5;entryY=0;entryDx=0;entryDy=0;labelBackgroundColor=default;fontFamily=Helvetica;fontSize=11;fontColor=#000000;endArrow=none;endFill=0;strokeColor=#000000;strokeWidth=1;elbow=vertical;" parent="50" source="xpBaOHlXI4stCzfS4Fe9-6" target="39" edge="1">
                    <mxGeometry relative="1" as="geometry"/>
                </mxCell>
                <mxCell id="40" value="吕嘉" style="text;html=1;strokeColor=none;fillColor=none;align=center;verticalAlign=middle;whiteSpace=wrap;rounded=0;dashed=1;fontColor=#000000;" parent="50" vertex="1">
                    <mxGeometry y="141" width="30" height="20" as="geometry"/>
                </mxCell>
                <mxCell id="45" style="edgeStyle=orthogonalEdgeStyle;shape=connector;rounded=0;html=1;exitX=0.5;exitY=1;exitDx=0;exitDy=0;entryX=0.5;entryY=0;entryDx=0;entryDy=0;labelBackgroundColor=default;fontFamily=Helvetica;fontSize=11;fontColor=#000000;endArrow=none;endFill=0;strokeColor=#000000;strokeWidth=1;elbow=vertical;" parent="50" source="36" target="40" edge="1">
                    <mxGeometry relative="1" as="geometry"/>
                </mxCell>
                <mxCell id="41" value="吕嬃" style="text;html=1;strokeColor=none;fillColor=none;align=center;verticalAlign=middle;whiteSpace=wrap;rounded=0;dashed=1;fontColor=#000000;" parent="50" vertex="1">
                    <mxGeometry x="156" y="60" width="30" height="20" as="geometry"/>
                </mxCell>
                <mxCell id="42" style="edgeStyle=orthogonalEdgeStyle;shape=connector;rounded=0;html=1;exitX=0.5;exitY=1;exitDx=0;exitDy=0;entryX=0.5;entryY=0;entryDx=0;entryDy=0;labelBackgroundColor=default;fontFamily=Helvetica;fontSize=11;fontColor=#000000;endArrow=none;endFill=0;strokeColor=#000000;strokeWidth=1;elbow=vertical;" parent="50" source="xpBaOHlXI4stCzfS4Fe9-4" target="41" edge="1">
                    <mxGeometry relative="1" as="geometry"/>
                </mxCell>
                <mxCell id="53" style="edgeStyle=entityRelationEdgeStyle;startArrow=none;endArrow=none;segment=10;fontColor=#000000;strokeColor=#000000;strokeWidth=1;elbow=vertical;orthogonal=0;snapToPoint=0;rounded=1;" parent="VfEH0Eg_Bxn7WgswUZxK-2" source="51" target="52" edge="1">
                    <mxGeometry relative="1" as="geometry"/>
                </mxCell>
                <mxCell id="51" value="" style="ellipse;whiteSpace=wrap;html=1;aspect=fixed;strokeColor=#000000;fillColor=default;" parent="VfEH0Eg_Bxn7WgswUZxK-2" vertex="1">
                    <mxGeometry x="542" y="200" width="8" height="8" as="geometry"/>
                </mxCell>
                <mxCell id="52" value="二世二年陈胜被杀。三年沛公道得张良，攻丰不下，往见项梁，共立楚怀王。秦将章邯破项梁于定陶。&lt;br&gt;沛公西入汉中，项羽破秦军于巨鹿。" style="text;html=1;align=left;verticalAlign=middle;resizable=0;points=[];autosize=1;strokeColor=#000000;fillColor=none;fontColor=#000000;dashed=1;spacingLeft=4;spacingTop=2;spacing=0;rounded=1;" parent="VfEH0Eg_Bxn7WgswUZxK-2" vertex="1">
                    <mxGeometry x="590" y="170" width="560" height="40" as="geometry"/>
                </mxCell>
                <mxCell id="69" style="edgeStyle=entityRelationEdgeStyle;startArrow=none;endArrow=none;segment=10;fontColor=#000000;strokeColor=#000000;strokeWidth=1;elbow=vertical;orthogonal=0;snapToPoint=0;rounded=1;" edge="1" parent="VfEH0Eg_Bxn7WgswUZxK-2" source="54" target="55">
                    <mxGeometry relative="1" as="geometry"/>
                </mxCell>
                <mxCell id="54" value="" style="ellipse;whiteSpace=wrap;html=1;aspect=fixed;strokeColor=#000000;fillColor=default;" parent="VfEH0Eg_Bxn7WgswUZxK-2" vertex="1">
                    <mxGeometry x="542" y="220" width="8" height="8" as="geometry"/>
                </mxCell>
                <mxCell id="55" value="四年，赵高杀二世，子婴灭赵高。子婴素车白马，系颈以组降沛公，沛公约法三章，秋毫无犯，秦民大喜。&lt;br&gt;项羽怨沛公先入关中，欲攻之，沛公赴鸿门宴谢罪。" style="text;html=1;align=left;verticalAlign=middle;resizable=0;points=[];autosize=1;strokeColor=#000000;fillColor=none;fontColor=#000000;dashed=1;spacingLeft=4;spacingTop=2;spacing=0;rounded=1;" parent="VfEH0Eg_Bxn7WgswUZxK-2" vertex="1">
                    <mxGeometry x="-96" y="180" width="580" height="40" as="geometry"/>
                </mxCell>
                <mxCell id="63" value="项羽自立为西楚霸王，立沛公为汉王。汉王烧绝栈道，示无东意。萧何月下追韩信。汉军从故道还定三秦。" style="text;html=1;align=left;verticalAlign=middle;resizable=0;points=[];autosize=1;strokeColor=#000000;fillColor=none;fontColor=#000000;dashed=1;spacingLeft=4;spacingTop=2;spacing=0;rounded=1;" vertex="1" parent="VfEH0Eg_Bxn7WgswUZxK-2">
                    <mxGeometry x="590" y="226" width="580" height="20" as="geometry"/>
                </mxCell>
                <mxCell id="64" value="项羽令英布杀义帝，汉王为义帝发丧，告诸侯共讨项羽。汉王兵败彭城，与数十骑遁去。&lt;br&gt;韩信定魏、赵，汉王使人说英布畔楚。项羽围汉王荥阳，汉王用陈平之计离间楚君臣。" style="text;html=1;align=left;verticalAlign=middle;resizable=0;points=[];autosize=1;strokeColor=#000000;fillColor=none;fontColor=#000000;dashed=1;spacingLeft=4;spacingTop=2;spacing=0;rounded=1;" vertex="1" parent="VfEH0Eg_Bxn7WgswUZxK-2">
                    <mxGeometry x="590" y="254" width="490" height="40" as="geometry"/>
                </mxCell>
                <mxCell id="65" value="&lt;font color=&quot;#000000&quot;&gt;秦&lt;/font&gt;" style="text;html=1;align=center;verticalAlign=middle;resizable=0;points=[];autosize=1;strokeColor=none;fillColor=#FF0080;rounded=1;" vertex="1" parent="VfEH0Eg_Bxn7WgswUZxK-2">
                    <mxGeometry x="500" y="93" width="30" height="20" as="geometry"/>
                </mxCell>
                <mxCell id="68" value="项羽伏弩射中汉王。项羽与汉王约，中分天下。汉王与诸侯会于垓下，四面楚歌，项羽泣别虞姬。" style="text;html=1;align=left;verticalAlign=middle;resizable=0;points=[];autosize=1;strokeColor=#000000;fillColor=none;fontColor=#000000;dashed=1;spacingLeft=4;spacingTop=2;spacing=0;rounded=1;" vertex="1" parent="VfEH0Eg_Bxn7WgswUZxK-2">
                    <mxGeometry x="-80" y="254" width="540" height="20" as="geometry"/>
                </mxCell>
                <mxCell id="72" value="诸侯共立汉王为皇帝，都洛阳，后都长安。燕王臧荼谋反，贬韩信为淮阴侯。十年，韩信谋反，夷三族。&lt;br&gt;梁王彭越、淮南王鯨布反。高祖过沛，咏歌“大风起兮云飞扬，威加海内兮归故乡，安得猛士兮守四方！”。&lt;br&gt;燕王卢绾反。高祖崩于长乐宫。" style="text;html=1;align=left;verticalAlign=middle;resizable=0;points=[];autosize=1;strokeColor=#000000;fillColor=none;fontColor=#000000;dashed=1;spacingLeft=4;spacingTop=2;spacing=0;rounded=1;" vertex="1" parent="VfEH0Eg_Bxn7WgswUZxK-2">
                    <mxGeometry x="-110" y="280" width="580" height="50" as="geometry"/>
                </mxCell>
            </root>
        </mxGraphModel>
    </diagram>
    <diagram id="sPunM_ect-P2OH4dGE9E" name="Page-2">
        <mxGraphModel dx="644" dy="515" grid="1" gridSize="10" guides="1" tooltips="1" connect="1" arrows="1" fold="1" page="1" pageScale="1" pageWidth="827" pageHeight="1169" math="0" shadow="0">
            <root>
                <mxCell id="fwIOm0H6EdkNR3iJJgJX-0"/>
                <mxCell id="fwIOm0H6EdkNR3iJJgJX-1" parent="fwIOm0H6EdkNR3iJJgJX-0"/>
                <mxCell id="fwIOm0H6EdkNR3iJJgJX-3" value="王禁" style="text;html=1;align=center;verticalAlign=middle;resizable=0;points=[];autosize=1;strokeColor=none;fillColor=none;" vertex="1" parent="fwIOm0H6EdkNR3iJJgJX-1">
                    <mxGeometry x="310" y="130" width="40" height="20" as="geometry"/>
                </mxCell>
                <mxCell id="fwIOm0H6EdkNR3iJJgJX-4" value="王政君" style="text;html=1;align=center;verticalAlign=middle;resizable=0;points=[];autosize=1;strokeColor=none;fillColor=none;" vertex="1" parent="fwIOm0H6EdkNR3iJJgJX-1">
                    <mxGeometry x="205" y="230" width="50" height="20" as="geometry"/>
                </mxCell>
                <mxCell id="fwIOm0H6EdkNR3iJJgJX-5" value="王君侠" style="text;html=1;align=center;verticalAlign=middle;resizable=0;points=[];autosize=1;strokeColor=none;fillColor=none;" vertex="1" parent="fwIOm0H6EdkNR3iJJgJX-1">
                    <mxGeometry x="150" y="230" width="50" height="20" as="geometry"/>
                </mxCell>
                <mxCell id="fwIOm0H6EdkNR3iJJgJX-6" value="王君力" style="text;html=1;align=center;verticalAlign=middle;resizable=0;points=[];autosize=1;strokeColor=none;fillColor=none;" vertex="1" parent="fwIOm0H6EdkNR3iJJgJX-1">
                    <mxGeometry x="260" y="230" width="50" height="20" as="geometry"/>
                </mxCell>
                <mxCell id="fwIOm0H6EdkNR3iJJgJX-7" value="王君弟" style="text;html=1;align=center;verticalAlign=middle;resizable=0;points=[];autosize=1;strokeColor=none;fillColor=none;" vertex="1" parent="fwIOm0H6EdkNR3iJJgJX-1">
                    <mxGeometry x="310" y="230" width="50" height="20" as="geometry"/>
                </mxCell>
                <mxCell id="fwIOm0H6EdkNR3iJJgJX-19" value="" style="edgeStyle=orthogonalEdgeStyle;html=1;" edge="1" parent="fwIOm0H6EdkNR3iJJgJX-1" source="fwIOm0H6EdkNR3iJJgJX-8" target="fwIOm0H6EdkNR3iJJgJX-18">
                    <mxGeometry relative="1" as="geometry"/>
                </mxCell>
                <mxCell id="fwIOm0H6EdkNR3iJJgJX-8" value="王凤" style="text;html=1;align=center;verticalAlign=middle;resizable=0;points=[];autosize=1;strokeColor=none;fillColor=none;" vertex="1" parent="fwIOm0H6EdkNR3iJJgJX-1">
                    <mxGeometry x="360" y="230" width="40" height="20" as="geometry"/>
                </mxCell>
                <mxCell id="fwIOm0H6EdkNR3iJJgJX-9" value="王曼" style="text;html=1;align=center;verticalAlign=middle;resizable=0;points=[];autosize=1;strokeColor=none;fillColor=none;" vertex="1" parent="fwIOm0H6EdkNR3iJJgJX-1">
                    <mxGeometry x="400" y="230" width="40" height="20" as="geometry"/>
                </mxCell>
                <mxCell id="fwIOm0H6EdkNR3iJJgJX-21" value="" style="edgeStyle=orthogonalEdgeStyle;html=1;" edge="1" parent="fwIOm0H6EdkNR3iJJgJX-1" source="fwIOm0H6EdkNR3iJJgJX-10" target="fwIOm0H6EdkNR3iJJgJX-20">
                    <mxGeometry relative="1" as="geometry"/>
                </mxCell>
                <mxCell id="fwIOm0H6EdkNR3iJJgJX-10" value="王谭" style="text;html=1;align=center;verticalAlign=middle;resizable=0;points=[];autosize=1;strokeColor=none;fillColor=none;" vertex="1" parent="fwIOm0H6EdkNR3iJJgJX-1">
                    <mxGeometry x="440" y="230" width="40" height="20" as="geometry"/>
                </mxCell>
                <mxCell id="fwIOm0H6EdkNR3iJJgJX-17" value="" style="edgeStyle=orthogonalEdgeStyle;html=1;" edge="1" parent="fwIOm0H6EdkNR3iJJgJX-1" source="fwIOm0H6EdkNR3iJJgJX-11" target="fwIOm0H6EdkNR3iJJgJX-16">
                    <mxGeometry relative="1" as="geometry"/>
                </mxCell>
                <mxCell id="fwIOm0H6EdkNR3iJJgJX-11" value="王崇" style="text;html=1;align=center;verticalAlign=middle;resizable=0;points=[];autosize=1;strokeColor=none;fillColor=none;" vertex="1" parent="fwIOm0H6EdkNR3iJJgJX-1">
                    <mxGeometry x="480" y="230" width="40" height="20" as="geometry"/>
                </mxCell>
                <mxCell id="fwIOm0H6EdkNR3iJJgJX-27" value="" style="edgeStyle=orthogonalEdgeStyle;html=1;" edge="1" parent="fwIOm0H6EdkNR3iJJgJX-1" source="fwIOm0H6EdkNR3iJJgJX-12" target="fwIOm0H6EdkNR3iJJgJX-26">
                    <mxGeometry relative="1" as="geometry"/>
                </mxCell>
                <mxCell id="fwIOm0H6EdkNR3iJJgJX-12" value="王商" style="text;html=1;align=center;verticalAlign=middle;resizable=0;points=[];autosize=1;strokeColor=none;fillColor=none;" vertex="1" parent="fwIOm0H6EdkNR3iJJgJX-1">
                    <mxGeometry x="520" y="230" width="40" height="20" as="geometry"/>
                </mxCell>
                <mxCell id="fwIOm0H6EdkNR3iJJgJX-13" value="王根" style="text;html=1;align=center;verticalAlign=middle;resizable=0;points=[];autosize=1;strokeColor=none;fillColor=none;" vertex="1" parent="fwIOm0H6EdkNR3iJJgJX-1">
                    <mxGeometry x="560" y="230" width="40" height="20" as="geometry"/>
                </mxCell>
                <mxCell id="fwIOm0H6EdkNR3iJJgJX-29" value="" style="edgeStyle=orthogonalEdgeStyle;html=1;" edge="1" parent="fwIOm0H6EdkNR3iJJgJX-1" source="fwIOm0H6EdkNR3iJJgJX-14" target="fwIOm0H6EdkNR3iJJgJX-28">
                    <mxGeometry relative="1" as="geometry"/>
                </mxCell>
                <mxCell id="fwIOm0H6EdkNR3iJJgJX-14" value="王逢时" style="text;html=1;align=center;verticalAlign=middle;resizable=0;points=[];autosize=1;strokeColor=none;fillColor=none;" vertex="1" parent="fwIOm0H6EdkNR3iJJgJX-1">
                    <mxGeometry x="595" y="230" width="50" height="20" as="geometry"/>
                </mxCell>
                <mxCell id="fwIOm0H6EdkNR3iJJgJX-15" value="" style="endArrow=classic;html=1;entryX=0.52;entryY=0.059;entryDx=0;entryDy=0;entryPerimeter=0;edgeStyle=orthogonalEdgeStyle;exitX=0.575;exitY=0.959;exitDx=0;exitDy=0;exitPerimeter=0;" edge="1" parent="fwIOm0H6EdkNR3iJJgJX-1" source="fwIOm0H6EdkNR3iJJgJX-3" target="fwIOm0H6EdkNR3iJJgJX-5">
                    <mxGeometry width="50" height="50" relative="1" as="geometry">
                        <mxPoint x="334" y="150" as="sourcePoint"/>
                        <mxPoint x="390" y="250" as="targetPoint"/>
                    </mxGeometry>
                </mxCell>
                <mxCell id="fwIOm0H6EdkNR3iJJgJX-16" value="王奉世" style="text;html=1;align=center;verticalAlign=middle;resizable=0;points=[];autosize=1;strokeColor=none;fillColor=none;" vertex="1" parent="fwIOm0H6EdkNR3iJJgJX-1">
                    <mxGeometry x="475" y="300" width="50" height="20" as="geometry"/>
                </mxCell>
                <mxCell id="fwIOm0H6EdkNR3iJJgJX-18" value="王襄" style="text;html=1;align=center;verticalAlign=middle;resizable=0;points=[];autosize=1;strokeColor=none;fillColor=none;" vertex="1" parent="fwIOm0H6EdkNR3iJJgJX-1">
                    <mxGeometry x="360" y="300" width="40" height="20" as="geometry"/>
                </mxCell>
                <mxCell id="fwIOm0H6EdkNR3iJJgJX-20" value="王仁" style="text;html=1;align=center;verticalAlign=middle;resizable=0;points=[];autosize=1;strokeColor=none;fillColor=none;" vertex="1" parent="fwIOm0H6EdkNR3iJJgJX-1">
                    <mxGeometry x="440" y="300" width="40" height="20" as="geometry"/>
                </mxCell>
                <mxCell id="fwIOm0H6EdkNR3iJJgJX-22" value="王舜" style="text;html=1;align=center;verticalAlign=middle;resizable=0;points=[];autosize=1;strokeColor=none;fillColor=none;" vertex="1" parent="fwIOm0H6EdkNR3iJJgJX-1">
                    <mxGeometry x="580" y="150" width="40" height="20" as="geometry"/>
                </mxCell>
                <mxCell id="fwIOm0H6EdkNR3iJJgJX-25" value="" style="edgeStyle=orthogonalEdgeStyle;html=1;" edge="1" parent="fwIOm0H6EdkNR3iJJgJX-1" source="fwIOm0H6EdkNR3iJJgJX-24" target="fwIOm0H6EdkNR3iJJgJX-22">
                    <mxGeometry relative="1" as="geometry"/>
                </mxCell>
                <mxCell id="fwIOm0H6EdkNR3iJJgJX-24" value="王音" style="text;html=1;align=center;verticalAlign=middle;resizable=0;points=[];autosize=1;strokeColor=none;fillColor=none;" vertex="1" parent="fwIOm0H6EdkNR3iJJgJX-1">
                    <mxGeometry x="580" y="100" width="40" height="20" as="geometry"/>
                </mxCell>
                <mxCell id="fwIOm0H6EdkNR3iJJgJX-26" value="王况" style="text;html=1;align=center;verticalAlign=middle;resizable=0;points=[];autosize=1;strokeColor=none;fillColor=none;" vertex="1" parent="fwIOm0H6EdkNR3iJJgJX-1">
                    <mxGeometry x="520" y="300" width="40" height="20" as="geometry"/>
                </mxCell>
                <mxCell id="fwIOm0H6EdkNR3iJJgJX-28" value="王买之" style="text;html=1;align=center;verticalAlign=middle;resizable=0;points=[];autosize=1;strokeColor=none;fillColor=none;" vertex="1" parent="fwIOm0H6EdkNR3iJJgJX-1">
                    <mxGeometry x="595" y="300" width="50" height="20" as="geometry"/>
                </mxCell>
                <mxCell id="3His_meNUZ0t313V_MxP-2" style="rounded=0;html=1;exitX=0.5;exitY=1;exitDx=0;exitDy=0;entryX=0.5;entryY=0;entryDx=0;entryDy=0;fontColor=#000000;endArrow=none;endFill=0;strokeColor=default;strokeWidth=1;elbow=vertical;edgeStyle=orthogonalEdgeStyle;" edge="1" parent="fwIOm0H6EdkNR3iJJgJX-1" source="3His_meNUZ0t313V_MxP-0" target="3His_meNUZ0t313V_MxP-1">
                    <mxGeometry relative="1" as="geometry"/>
                </mxCell>
                <mxCell id="3His_meNUZ0t313V_MxP-5" style="edgeStyle=orthogonalEdgeStyle;rounded=0;html=1;exitX=0.5;exitY=1;exitDx=0;exitDy=0;entryX=0.5;entryY=0;entryDx=0;entryDy=0;fontColor=#000000;endArrow=none;endFill=0;strokeColor=default;strokeWidth=1;elbow=vertical;" edge="1" parent="fwIOm0H6EdkNR3iJJgJX-1" source="3His_meNUZ0t313V_MxP-0" target="3His_meNUZ0t313V_MxP-3">
                    <mxGeometry relative="1" as="geometry"/>
                </mxCell>
                <mxCell id="3His_meNUZ0t313V_MxP-6" style="edgeStyle=orthogonalEdgeStyle;rounded=0;html=1;exitX=0.5;exitY=1;exitDx=0;exitDy=0;entryX=0.5;entryY=0;entryDx=0;entryDy=0;fontColor=#000000;endArrow=none;endFill=0;strokeColor=default;strokeWidth=1;elbow=vertical;" edge="1" parent="fwIOm0H6EdkNR3iJJgJX-1" source="3His_meNUZ0t313V_MxP-0" target="3His_meNUZ0t313V_MxP-4">
                    <mxGeometry relative="1" as="geometry"/>
                </mxCell>
                <mxCell id="3His_meNUZ0t313V_MxP-0" value="吕公" style="text;html=1;strokeColor=none;fillColor=none;align=center;verticalAlign=middle;whiteSpace=wrap;rounded=0;dashed=1;fontColor=#000000;" vertex="1" parent="fwIOm0H6EdkNR3iJJgJX-1">
                    <mxGeometry x="280" y="360" width="30" height="20" as="geometry"/>
                </mxCell>
                <mxCell id="3His_meNUZ0t313V_MxP-1" value="吕雉" style="text;html=1;strokeColor=none;fillColor=none;align=center;verticalAlign=middle;whiteSpace=wrap;rounded=0;dashed=1;fontColor=#000000;" vertex="1" parent="fwIOm0H6EdkNR3iJJgJX-1">
                    <mxGeometry x="250" y="420" width="30" height="20" as="geometry"/>
                </mxCell>
                <mxCell id="3His_meNUZ0t313V_MxP-3" value="吕禄" style="text;html=1;strokeColor=none;fillColor=none;align=center;verticalAlign=middle;whiteSpace=wrap;rounded=0;dashed=1;fontColor=#000000;" vertex="1" parent="fwIOm0H6EdkNR3iJJgJX-1">
                    <mxGeometry x="290" y="420" width="30" height="20" as="geometry"/>
                </mxCell>
                <mxCell id="3His_meNUZ0t313V_MxP-4" value="吕产" style="text;html=1;strokeColor=none;fillColor=none;align=center;verticalAlign=middle;whiteSpace=wrap;rounded=0;dashed=1;fontColor=#000000;" vertex="1" parent="fwIOm0H6EdkNR3iJJgJX-1">
                    <mxGeometry x="330" y="420" width="30" height="20" as="geometry"/>
                </mxCell>
            </root>
        </mxGraphModel>
    </diagram>
</mxfile>